<svg width="1278" height="175" viewBox="0 0 1278 175" fill="none" xmlns="http://www.w3.org/2000/svg">
<mask id="mask0_258_2020" style="mask-type:luminance" maskUnits="userSpaceOnUse" x="0" y="0" width="1278" height="175">
<path d="M49.2162 0H1228.76C1241.82 0 1254.33 4.00814 1263.56 11.1427C1272.79 18.2772 1277.98 27.9537 1277.98 38.0435V175H0V38.0435C0 27.9537 5.18526 18.2772 14.4151 11.1427C23.6449 4.00814 36.1632 0 49.2162 0Z" fill="white"/>
</mask>
<g mask="url(#mask0_258_2020)">
<mask id="mask1_258_2020" style="mask-type:luminance" maskUnits="userSpaceOnUse" x="111" y="167" width="47" height="7">
<path d="M146.52 167.246H146.572C146.572 167.246 144.528 167.358 143.851 167.416C140.819 167.679 140.315 172.14 137.453 172.912C134.313 172.385 131.945 167.691 129.455 167.847L128.869 167.873C128.595 167.884 128.246 167.899 127.918 167.915H127.882C127.637 167.926 127.406 167.939 127.225 167.95C125.46 168.062 123.488 170.74 121.577 171.587C120.68 171.01 119.43 169.145 118.173 169.218C118.173 169.218 116.708 169.268 116.029 169.315C115.103 169.378 114.219 169.639 113.475 170.068C112.73 170.497 112.155 171.078 111.812 171.746L113.471 171.619C113.816 170.429 115.768 169.637 117.299 169.336C118.307 169.745 119.282 171.913 120.652 171.831H120.668H120.63C121.13 171.83 121.629 171.806 122.125 171.759C125.025 171.506 126.261 168.765 128.474 168.024C130.846 168.804 133.486 173.302 136.878 173.007C136.878 173.007 138.342 172.968 139.26 172.888C141.478 172.695 142.753 168.256 145.823 167.377C148.549 167.631 152.585 169.377 155.362 169.183L157.241 169.056C155.402 169.042 153.587 168.736 151.907 168.157C150.314 167.641 148.621 167.331 146.897 167.241C146.766 167.241 146.635 167.244 146.503 167.25" fill="white"/>
</mask>
<g mask="url(#mask1_258_2020)">
<path d="M111.946 165.405L111.413 173.286L157.133 175.135L157.666 167.254L111.946 165.405Z" fill="url(#paint0_linear_258_2020)"/>
</g>
<mask id="mask2_258_2020" style="mask-type:luminance" maskUnits="userSpaceOnUse" x="285" y="44" width="25" height="25">
<path d="M289.623 52.2929C289.589 52.2688 289.556 52.246 289.528 52.2231L289.692 52.35L291.859 54.0683C291.92 54.1101 291.985 54.1494 292.048 54.1951L292.064 54.209L292.056 54.2001C295.403 56.3559 300.642 57.378 304.485 59.5693C305.777 61.5856 305.715 65.6322 307.584 67.1134L309.944 68.9864C308.379 67.7462 308.004 62.188 306.171 60.6929L306.204 60.7183L303.866 58.8655C300.485 56.1848 294.422 54.3574 291.28 53.0956C290.296 50.9994 289.751 47.1 288.25 45.9105L285.963 44.0996C287.909 45.6391 287.566 50.5505 289.613 52.2904" fill="white"/>
</mask>
<g mask="url(#mask2_258_2020)">
<path d="M309.949 44.1025H285.973V68.9893H309.949V44.1025Z" fill="url(#paint1_linear_258_2020)"/>
</g>
<mask id="mask3_258_2020" style="mask-type:luminance" maskUnits="userSpaceOnUse" x="14" y="4" width="393" height="305">
<path d="M406.448 4.50391H14.7607V308.773H406.448V4.50391Z" fill="white"/>
</mask>
<g mask="url(#mask3_258_2020)">
<path d="M303.753 6.15293C302.496 6.02905 301.219 6.14665 300.034 6.49532L300.256 5.11815C300.912 4.6109 303.373 4.21651 303.975 4.77575L303.753 6.15293Z" fill="#64E925"/>
<path d="M261.696 113.325C262.09 112.185 262.114 110.988 261.767 109.84L263.857 110.266C264.538 110.961 264.744 113.293 263.786 113.751L261.696 113.325Z" fill="#26CDF8"/>
<path d="M298.483 93.4785C299.121 93.7688 299.842 93.9329 300.582 93.9566L300.053 94.6566C299.545 94.8126 298.108 94.5843 297.955 94.1785L298.483 93.4785Z" fill="#64E925"/>
<path d="M367.018 46.4315C367.281 45.9034 367.373 45.3333 367.283 44.7715L368.253 45.0581C368.532 45.4157 368.476 46.5367 367.987 46.718L367.018 46.4315Z" fill="#64E925"/>
<path d="M328.091 111.473C329.362 111.409 330.594 111.104 331.677 110.585L331.802 111.98C331.273 112.582 328.942 113.336 328.216 112.868L328.091 111.473Z" fill="#64E925"/>
<path d="M320.047 167.91C320.628 169.305 324.114 170.954 324.114 170.954L321.817 172.067C320.41 171.952 317.468 170.091 317.75 169.024L320.047 167.91Z" fill="#26CDF8"/>
<path d="M330.3 79.5884C331.578 79.783 332.898 79.7312 334.144 79.4375L333.793 80.8324C333.066 81.3206 330.512 81.5933 329.949 80.9833L330.3 79.5884Z" fill="#FFC200"/>
<path d="M286.372 137.63C286.731 137.105 286.916 136.519 286.912 135.925L287.876 136.315C288.109 136.715 287.876 137.879 287.337 138.021L286.372 137.63Z" fill="#FF4770"/>
<path d="M335.593 42.6047C333.98 40.3741 327.264 38.4516 327.264 38.4516L330.722 35.9318C333.183 35.7568 339.059 38.1701 339.049 40.0849L335.593 42.6047Z" fill="#FF4770"/>
<path d="M209.472 67.1284C208.821 66.7467 208.058 66.4949 207.251 66.3954L207.948 65.6802C208.532 65.5597 210.069 65.9528 210.169 66.4132L209.472 67.1284Z" fill="#FF4770"/>
<path d="M129.468 94.3357C128.464 94.5297 127.16 95.9424 127.16 95.9424L126.458 94.9279C126.593 94.337 128.016 93.1627 128.766 93.3212L129.468 94.3357Z" fill="#FFC200"/>
<path d="M235.535 35.1089C235.999 33.2245 233.333 29.6142 233.333 29.6142L236.895 29.4531C238.424 30.2723 240.295 33.8484 239.096 34.9479L235.535 35.1089Z" fill="#FF4770"/>
<path d="M89.184 97.2708C89.1354 96.4792 88.8351 95.7092 88.3096 95.0288L89.7598 94.9717C90.3799 95.309 91.1264 96.7699 90.6342 97.2137L89.184 97.2708Z" fill="#FF4770"/>
<path d="M65.9209 124.946C66.5459 124.743 67.2071 123.728 67.2071 123.728L67.7927 124.331C67.7829 124.724 67.0118 125.599 66.5066 125.55L65.9209 124.946Z" fill="#FF4770"/>
<path d="M140.275 64.0862C140.558 63.5388 140.662 62.9461 140.577 62.3604L141.581 62.6672C141.867 63.0477 141.791 64.2093 141.281 64.3931L140.275 64.0862Z" fill="#FF4770"/>
<path d="M172.784 133.336C174.933 133.749 179.228 132.092 179.228 132.092L179.236 134.553C178.216 135.568 174 136.679 172.792 135.797L172.784 133.336Z" fill="#64E925"/>
<path d="M18.7702 100.894C18.2141 99.5003 14.7607 97.8048 14.7607 97.8048L17.0821 96.7168C18.4864 96.8436 21.3918 98.7356 21.0916 99.8047L18.7702 100.894Z" fill="#0366C8"/>
<path d="M274.952 170.611C275.194 171.911 277.956 173.789 277.956 173.789L275.697 174.506C274.472 174.238 272.232 172.245 272.693 171.328L274.952 170.611Z" fill="#FF4770"/>
<path d="M63.1943 155.422C64.4165 155.289 66.1883 153.74 66.1883 153.74L66.856 155.008C66.6017 155.696 64.7233 156.951 63.862 156.69L63.1943 155.422Z" fill="#FF4770"/>
<path d="M135.743 126.654C134.804 126.33 133.777 126.19 132.751 126.247L133.34 125.217C134.011 124.941 136.04 125.081 136.332 125.624L135.743 126.654Z" fill="#FF4770"/>
<path d="M235.004 156.275C233.07 155.091 227.727 155.245 227.727 155.245L229.183 152.745C230.824 152.081 235.76 152.452 236.461 153.775L235.004 156.275Z" fill="#FF4770"/>
<path d="M360.267 65.7026C361.445 63.9628 360.216 59.8135 360.216 59.8135L363.767 60.4729C364.952 61.6256 365.408 65.5606 363.817 66.362L360.267 65.7026Z" fill="#269AF8"/>
<path d="M226.723 112.718C224.918 112.925 222.329 115.223 222.329 115.223L221.327 113.354C221.693 112.339 224.444 110.473 225.719 110.851L226.723 112.718Z" fill="#0366C8"/>
<path d="M276.503 72.157C277.573 71.7677 278.636 69.9619 278.636 69.9619L279.714 70.9764C279.733 71.6612 278.472 73.221 277.581 73.1715L276.503 72.157Z" fill="#FFC200"/>
<path d="M265.061 98.0242C264.363 97.6503 263.556 97.4151 262.713 97.3394L263.395 96.5785C263.994 96.434 265.612 96.789 265.743 97.2633L265.061 98.0242Z" fill="#FFC200"/>
<path d="M307.879 135.924C310.381 137.154 316.738 136.46 316.738 136.46L315.396 139.587C313.546 140.537 307.582 140.565 306.537 139.051L307.879 135.924Z" fill="#7CCDA1"/>
<path d="M346.319 133.178C346.286 133.84 346.464 134.498 346.838 135.093L345.625 135.06C345.141 134.745 344.656 133.488 345.107 133.146L346.319 133.178Z" fill="#64E925"/>
<path d="M344.821 159.634C343.918 159.573 343.01 159.686 342.177 159.961L342.283 158.972C342.738 158.592 344.482 158.258 344.928 158.645L344.821 159.634Z" fill="#FF4770"/>
<path d="M257.34 147.263C257.504 148.144 257.947 148.98 258.629 149.697L257.015 149.881C256.275 149.555 255.235 147.979 255.725 147.447L257.34 147.263Z" fill="#64E925"/>
<path d="M203.61 116.165C203.565 115.714 203.377 115.278 203.063 114.896L203.894 114.846C204.255 115.031 204.714 115.86 204.44 116.114L203.61 116.165Z" fill="#0366C8"/>
</g>
<mask id="mask4_258_2020" style="mask-type:luminance" maskUnits="userSpaceOnUse" x="61" y="37" width="162" height="70">
<path d="M68.3765 38.3925C65.9616 39.7152 64.1111 41.4664 61.7881 42.7878L61.9013 42.9146C64.3063 41.6731 66.3012 39.9865 68.7095 38.7742C70.5928 37.8384 72.4417 37.4021 74.3005 38.565C77.1895 40.1844 78.3575 42.9755 78.9251 45.5916C80.0374 51.094 79.0892 56.7054 78.9645 62.2559C78.8634 63.9887 78.9975 65.725 79.3648 67.4362C80.254 70.959 83.2381 71.6438 87.1984 70.2907C87.8973 70.0564 88.5801 69.7944 89.2441 69.5058C95.5717 66.6449 101.056 62.7847 106.719 59.338C109.246 57.8518 116.121 53.3779 119.046 53.7583C120.985 54.3518 120.716 58.4998 120.637 59.972C120.309 64.3914 119.353 68.8235 118.761 73.2556C118.279 76.0937 118.156 78.9613 118.393 81.8179C118.741 84.6077 120.109 87.3976 124.419 87.0894C128.889 86.7001 134.254 83.1862 138.09 81.3576C142.621 79.1117 148.087 76.5501 153.635 77.1005C158.042 77.6749 160.929 80.0235 160.058 83.6085C159.717 85.2266 158.885 86.8206 158.429 88.4615C158.108 89.6139 158.073 90.8029 158.326 91.9654C158.456 92.735 158.855 93.4627 159.478 94.0712C160.101 94.6797 160.927 95.1462 161.866 95.421C162.96 95.6719 164.096 95.7946 165.237 95.7849C168.88 95.7082 172.513 95.4477 176.112 95.005C183.925 94.2505 191.952 93.2893 199.736 94.5942C209.005 96.301 215.992 101.737 222.494 106.804L222.651 106.711C218.789 103.356 214.476 100.328 209.784 97.6782C206.788 96.0498 203.439 94.8474 199.897 94.1275C192.04 92.7402 183.898 93.638 176.006 94.3367C172.448 94.7452 168.861 94.9743 165.265 95.0228C162.182 94.986 160.025 94.3748 159.42 91.8284C158.754 89.0271 160.66 86.5023 161.277 83.7847C162.327 79.6634 158.98 76.7682 153.863 76.0682C149.347 75.5369 144.886 76.9559 140.987 78.5677C137.158 80.1516 133.568 82.1768 129.864 83.8418C128.675 84.3923 127.422 84.8547 126.12 85.2228C125.502 85.4524 124.821 85.5633 124.136 85.5463C123.451 85.5293 122.781 85.3849 122.183 85.1251L122.111 85.082L122.045 85.0288L121.912 84.9248C121.413 84.4213 121.075 83.8332 120.928 83.209C120.41 79.9757 120.51 76.7011 121.223 73.4902C121.924 69.0289 122.936 64.6134 123.279 60.0938C123.37 58.9296 123.359 57.762 123.248 56.5989C123.052 54.4139 121.935 51.553 118.387 51.7192C116.154 52.0222 114.045 52.7248 112.226 53.771C107.323 56.3072 103.003 59.2885 98.4771 62.1405C95.8703 63.7181 85.2396 71.0173 82.3867 68.9744C80.7379 67.6124 80.8347 64.1213 80.7789 62.2711C80.7789 58.9144 81.025 55.5679 80.943 52.1947C80.7789 47.8565 80.4344 42.5786 76.5136 39.1724C75.8756 38.6281 75.1337 38.1624 74.3136 37.7914C73.6666 37.4603 72.9077 37.2839 72.1317 37.2842C70.7628 37.3482 69.4522 37.7351 68.3765 38.3925Z" fill="white"/>
</mask>
<g mask="url(#mask4_258_2020)">
<path d="M211.635 5.8914L39.0771 42.0439L72.7966 138.21L245.355 102.058L211.635 5.8914Z" fill="url(#paint2_linear_258_2020)"/>
</g>
<mask id="mask5_258_2020" style="mask-type:luminance" maskUnits="userSpaceOnUse" x="1075" y="74" width="20" height="17">
<path d="M1088.46 77.241L1088.48 77.2208C1088.48 77.2208 1087.66 77.9474 1087.39 78.1985C1086.22 79.3195 1088.48 81.4233 1087.67 82.7079C1086.62 83.0356 1085.46 83.1072 1084.35 82.9133C1083.08 82.8119 1081.89 82.7117 1081.38 83.167L1081.14 83.3724L1080.75 83.7072L1080.74 83.7199C1080.64 83.8061 1080.55 83.8885 1080.48 83.9519C1079.77 84.586 1080.4 86.4044 1080.05 87.4063C1079.72 87.4103 1079.4 87.3916 1079.08 87.3505C1078.38 87.282 1077.58 87.2135 1077.25 87.509C1077.25 87.509 1076.64 88.0162 1076.38 88.2635C1076.01 88.5982 1075.77 89.005 1075.69 89.4386C1075.6 89.8721 1075.67 90.3153 1075.9 90.7186L1076.55 90.1124C1076.37 89.7401 1076.31 89.3381 1076.38 88.9432C1076.45 88.5483 1076.64 88.173 1076.95 87.8514C1077.34 87.8133 1077.73 87.8366 1078.11 87.9199C1078.77 88.015 1079.47 88.1101 1079.79 87.821L1079.77 87.8349C1079.99 87.6684 1080.19 87.4922 1080.38 87.3074C1081.5 86.2345 1080.51 84.6329 1081.06 83.5766C1081.88 83.4327 1082.72 83.4138 1083.54 83.5208C1085.04 83.6133 1086.69 83.7059 1087.48 82.9476C1087.48 82.9476 1088.09 82.4403 1088.45 82.1043C1089.3 81.2838 1087.39 78.934 1088.23 77.5302C1089.56 76.7363 1092.28 76.1518 1093.38 75.1449L1094.12 74.4639C1092.83 75.6496 1089.9 75.9958 1088.46 77.2537" fill="white"/>
</mask>
<g mask="url(#mask5_258_2020)">
<path d="M1085.78 67.222L1064.83 81.6592L1083.63 97.9517L1104.57 83.5145L1085.78 67.222Z" fill="url(#paint3_linear_258_2020)"/>
</g>
<mask id="mask6_258_2020" style="mask-type:luminance" maskUnits="userSpaceOnUse" x="1110" y="85" width="129" height="50">
<path d="M1213.22 105.366C1212.53 104.96 1211.96 104.434 1211.58 103.83C1211.19 103.226 1211 102.561 1211 101.888C1210.9 100.849 1211.07 99.8055 1211.49 98.8175C1213.15 99.3021 1214.6 100.133 1215.67 101.217C1216.15 101.694 1216.48 102.25 1216.63 102.842C1216.78 103.434 1216.76 104.045 1216.55 104.627C1216.5 104.754 1216.45 104.88 1216.39 105.007C1215.77 105.372 1215.03 105.592 1214.25 105.641C1213.88 105.646 1213.51 105.551 1213.21 105.371M1227.28 85.5327C1225.02 85.766 1222.87 86.4134 1221 87.4209C1217.96 88.7358 1215.3 90.503 1213.15 92.6202C1211.96 93.8599 1210.87 95.1568 1209.89 96.5032C1206.61 96.1425 1203.26 96.5884 1200.33 97.7776C1197.25 98.9782 1194.55 100.69 1192.43 102.789L1192.44 102.78C1191.38 103.563 1190.31 104.344 1190.02 104.556C1187.02 106.658 1183.54 108.298 1179.74 109.388C1174.45 110.443 1169.08 111.248 1163.67 111.798C1160.5 112.259 1157.38 112.901 1154.34 113.718C1144.89 115.899 1143.97 119.921 1141.98 123.609C1140.98 125.306 1139.48 126.797 1137.6 127.961C1132.25 130.032 1126.41 129.057 1121.22 129.881C1117.21 130.635 1113.46 132.054 1110.23 134.039C1112.41 132.703 1119.74 131.2 1123.25 131.106C1124.26 131.078 1125.47 131.056 1126.52 131.036C1128.92 130.997 1131.29 130.609 1133.51 129.895C1134.2 129.673 1134.81 129.448 1135.34 129.229C1135.04 129.377 1134.85 129.451 1134.85 129.451C1139.13 127.993 1142.72 125.182 1145.59 120.151C1146.74 118.128 1148.6 116.389 1150.95 115.125C1154.14 114.264 1157.48 113.77 1160.86 113.661C1170.27 113.14 1179.67 113.747 1185.8 109.021C1188.46 106.936 1190.92 104.694 1193.13 102.315C1200.05 97.5912 1203.31 97.5037 1208.9 98.3001C1208.02 100.492 1208.14 102.851 1209.24 104.983C1209.47 105.727 1210.07 106.373 1210.91 106.784C1211.74 107.194 1212.75 107.339 1213.72 107.186C1217.28 106.668 1220.41 103.951 1218.38 100.845C1217.09 99.0084 1214.93 97.6264 1212.36 96.9863L1212.38 96.9584C1213.92 94.2935 1216.08 91.8672 1218.74 89.7974C1220.36 88.5352 1222.3 87.5521 1224.45 86.9124C1226.29 86.8324 1228.14 87.0041 1229.9 87.4196C1234.57 88.4798 1236.87 90.9146 1236.59 92.5897C1236.6 93.3606 1236.3 94.1147 1235.73 94.7468C1235.16 95.3788 1234.35 95.8571 1233.41 96.1147C1232.47 96.3724 1231.45 96.3965 1230.49 96.1838C1229.53 95.971 1228.68 95.532 1228.06 94.9281C1227 94.6157 1226.07 94.0915 1225.36 93.4093C1224.65 92.7271 1224.19 91.9112 1224.02 91.0452L1221.78 92.7394C1223.04 94.7304 1225.23 96.2736 1227.91 97.051C1230.13 97.4516 1232.46 97.2774 1234.54 96.5552C1235.8 96.235 1236.9 95.6194 1237.7 94.7934C1238.49 93.9674 1238.93 92.9718 1238.95 91.9443C1238.91 88.405 1232.78 85.501 1228.22 85.501C1227.91 85.5005 1227.59 85.5158 1227.28 85.5467" fill="white"/>
</mask>
<g mask="url(#mask6_258_2020)">
<path d="M1234.91 68.0219L1099.22 87.0283L1114.33 151.484L1250.02 132.478L1234.91 68.0219Z" fill="url(#paint4_linear_258_2020)"/>
</g>
<mask id="mask7_258_2020" style="mask-type:luminance" maskUnits="userSpaceOnUse" x="951" y="17" width="313" height="292">
<path d="M1263.03 17.0645H951.672V308.056H1263.03V17.0645Z" fill="white"/>
</mask>
<g mask="url(#mask7_258_2020)">
<path d="M1045.61 122.654C1043 119.622 1033.18 117.464 1033.18 117.464L1037.73 113.586C1041.22 113.126 1049.91 116.053 1050.17 118.777L1045.61 122.654Z" fill="#9FCDF8"/>
<path d="M1022.74 66.6869C1022.15 67.3513 1021.78 68.1179 1021.67 68.9188L1020.45 68.2758C1020.21 67.7077 1020.77 66.1695 1021.52 66.0439L1022.74 66.6869Z" fill="#0366C8"/>
<path d="M1006.91 139.468C1007.69 140.704 1011.23 141.891 1011.23 141.891L1009.27 143.168C1007.94 143.206 1004.87 141.773 1004.95 140.745L1006.91 139.468Z" fill="#FF4770"/>
<path d="M1053.72 69.3339C1054.5 68.0975 1058.05 66.9106 1058.05 66.9106L1056.09 65.6336C1054.76 65.5955 1051.69 67.0285 1051.77 68.0569L1053.72 69.3339Z" fill="#FF4770"/>
<path d="M1126.21 82.5896C1125.44 81.6157 1122.4 80.851 1122.4 80.851L1123.88 79.6767C1124.98 79.5639 1127.66 80.5644 1127.7 81.4153L1126.21 82.5896Z" fill="#26CDF8"/>
<path d="M1166.23 127.489C1166.76 126.274 1165.43 123.685 1165.43 123.685L1167.81 123.833C1168.72 124.485 1169.53 126.989 1168.61 127.637L1166.23 127.489Z" fill="#FF4770"/>
<path d="M1218.61 124.292C1218.03 125.355 1217.81 126.511 1217.95 127.657L1216 127.035C1215.45 126.296 1215.64 124.018 1216.65 123.671L1218.61 124.292Z" fill="#64E925"/>
<path d="M1170.68 62.4395C1171.67 63.6568 1175.52 64.5876 1175.52 64.5876L1173.67 66.0815C1172.29 66.2349 1168.9 65.0112 1168.83 63.9333L1170.68 62.4395Z" fill="#0366C8"/>
<path d="M1213.88 157.824C1212.03 157.528 1208.44 159.053 1208.44 159.053L1208.32 156.953C1209.14 156.065 1212.7 155.004 1213.77 155.724L1213.88 157.824Z" fill="#FF4770"/>
<path d="M1260.69 119.61C1260.83 118.531 1260.62 117.442 1260.09 116.439L1262.07 116.587C1262.82 117.139 1263.45 119.234 1262.67 119.757L1260.69 119.61Z" fill="#0366C8"/>
<path d="M1145.18 151.544C1146.63 151.43 1148.81 149.667 1148.81 149.667L1149.52 151.189C1149.18 151.99 1146.9 153.403 1145.9 153.067L1145.18 151.544Z" fill="#64E925"/>
<path d="M969.403 74.9068C969.71 74.5237 969.889 74.0881 969.925 73.6387L970.627 73.9722C970.776 74.2829 970.521 75.1515 970.105 75.2403L969.403 74.9068Z" fill="#26CDF8"/>
<path d="M1111.58 168.743C1111.97 169.569 1114.12 170.503 1114.12 170.503L1112.76 171.216C1111.91 171.173 1110.09 170.106 1110.22 169.456L1111.58 168.743Z" fill="#64E925"/>
<path d="M1109.62 44.7873C1110.02 43.9618 1112.17 43.0271 1112.17 43.0271L1110.81 42.3145C1109.96 42.3576 1108.13 43.4241 1108.27 44.0746L1109.62 44.7873Z" fill="#64E925"/>
<path d="M1003.31 89.8066C1004.64 90.399 1006.13 90.7296 1007.66 90.7692L1006.58 92.2249C1005.53 92.5546 1002.55 92.0981 1002.23 91.2625L1003.31 89.8066Z" fill="#FFC200"/>
<path d="M1161.38 43.5506C1160.66 42.105 1156.85 40.497 1156.85 40.497L1159.21 39.2188C1160.71 39.2809 1163.96 41.1209 1163.74 42.2724L1161.38 43.5506Z" fill="#0366C8"/>
<path d="M1062.22 33.1308C1061.83 32.4599 1059.97 31.7764 1059.97 31.7764L1061.04 31.1221C1061.76 31.1221 1063.36 31.9273 1063.3 32.4764L1062.22 33.1308Z" fill="#0366C8"/>
<path d="M970.868 32.2822C970.947 32.8618 971.209 33.4175 971.631 33.9003L970.57 33.9891C970.097 33.7621 969.469 32.7134 969.807 32.371L970.868 32.2822Z" fill="#FF4770"/>
<path d="M951.672 171.424C952.384 171.171 953.099 169.979 953.099 169.979L953.806 170.658C953.806 171.113 952.965 172.142 952.379 172.104L951.672 171.424Z" fill="#FF4770"/>
</g>
<mask id="mask8_258_2020" style="mask-type:luminance" maskUnits="userSpaceOnUse" x="997" y="23" width="11" height="10">
<path d="M997.766 25.5841C997.274 26.3133 1006.53 31.8321 1006.21 32.2468L1007.54 30.4144C1008.05 29.6725 998.734 24.231 999.136 23.6934L997.766 25.5841Z" fill="white"/>
</mask>
<g mask="url(#mask8_258_2020)">
<path d="M1002.23 19.5401L991.759 28.3096L1003.09 36.3937L1013.56 27.6243L1002.23 19.5401Z" fill="url(#paint5_linear_258_2020)"/>
</g>
<mask id="mask9_258_2020" style="mask-type:luminance" maskUnits="userSpaceOnUse" x="997" y="23" width="12" height="4">
<path d="M999.148 23.6759L997.795 25.5477C998.318 24.8236 1004.43 25.4285 1006.79 26.4493L1008.15 24.5725C1005.86 23.8001 1003.39 23.3938 1000.89 23.3779C999.967 23.3779 999.296 23.4718 999.148 23.6759Z" fill="white"/>
</mask>
<g mask="url(#mask9_258_2020)">
<path d="M998.167 21.8867L997.055 26.3379L1007.78 27.9393L1008.89 23.4881L998.167 21.8867Z" fill="url(#paint6_linear_258_2020)"/>
</g>
<mask id="mask10_258_2020" style="mask-type:luminance" maskUnits="userSpaceOnUse" x="993" y="29" width="9" height="8">
<path d="M993.483 31.0973C992.663 32.2386 1000.11 36.4424 999.822 36.871L1001.15 35.0411C1001.86 34.0546 994.074 30.2832 994.786 29.2979L993.483 31.0973Z" fill="white"/>
</mask>
<g mask="url(#mask10_258_2020)">
<path d="M997.48 25.7434L987.765 32.9043L997.042 40.4255L1006.76 33.2646L997.48 25.7434Z" fill="url(#paint7_linear_258_2020)"/>
</g>
<mask id="mask11_258_2020" style="mask-type:luminance" maskUnits="userSpaceOnUse" x="987" y="36" width="6" height="16">
<path d="M990.72 38.2305C987.866 42.1782 988.88 49.8059 987.736 51.3821L989.064 49.5497C992.64 45.0365 991.178 37.5964 992.089 36.3359L990.72 38.2305Z" fill="white"/>
</mask>
<g mask="url(#mask11_258_2020)">
<path d="M987.874 35.7117L984.542 50.9629L992.507 52.0028L995.84 36.7516L987.874 35.7117Z" fill="url(#paint8_linear_258_2020)"/>
</g>
<mask id="mask12_258_2020" style="mask-type:luminance" maskUnits="userSpaceOnUse" x="964" y="64" width="5" height="15">
<path d="M966.849 66.1592C964.598 69.2737 966.057 76.2839 964.331 78.6704L965.658 76.838C968.961 72.2728 967.309 65.5252 968.219 64.2646L966.849 66.1592Z" fill="white"/>
</mask>
<g mask="url(#mask12_258_2020)">
<path d="M964.5 63.5991L960.858 78.1523L968.796 79.3391L972.437 64.7858L964.5 63.5991Z" fill="url(#paint9_linear_258_2020)"/>
</g>
<mask id="mask13_258_2020" style="mask-type:luminance" maskUnits="userSpaceOnUse" x="993" y="29" width="15" height="4">
<path d="M994.792 29.2943L993.489 31.095C993.719 30.7767 997.263 31.2282 999.999 31.9827C1002.45 32.6574 1005.97 32.5965 1006.24 32.2135L1007.55 30.409C1005.49 30.8001 1003.31 30.7213 1001.3 30.182C999.431 29.6308 997.464 29.2954 995.466 29.1865C995.086 29.1865 994.848 29.2246 994.793 29.2994" fill="white"/>
</mask>
<g mask="url(#mask13_258_2020)">
<path d="M994.177 26.8391L992.518 32.4893L1006.86 35.0058L1008.51 29.3556L994.177 26.8391Z" fill="url(#paint10_linear_258_2020)"/>
</g>
<mask id="mask14_258_2020" style="mask-type:luminance" maskUnits="userSpaceOnUse" x="990" y="35" width="12" height="4">
<path d="M996.877 35.9338C994.196 35.5229 992.572 35.6675 992.152 36.2496L990.799 38.1226C991.184 37.5887 992.902 37.3845 995.522 37.8106C998.173 38.2405 999.489 37.3401 999.777 36.9419L1001.13 35.0664C1000.6 35.5065 999.92 35.8216 999.167 35.9753C998.414 36.129 997.62 36.1138 996.877 35.9338Z" fill="white"/>
</mask>
<g mask="url(#mask14_258_2020)">
<path d="M990.857 34.4637L990.487 38.2217L1001.07 38.8463L1001.44 35.0883L990.857 34.4637Z" fill="url(#paint11_linear_258_2020)"/>
</g>
<mask id="mask15_258_2020" style="mask-type:luminance" maskUnits="userSpaceOnUse" x="966" y="49" width="24" height="18">
<path d="M968.115 64.4132L966.76 66.2888C967.669 65.0308 982.328 58.8715 987.901 51.1627L989.258 49.2871C986.994 52.4181 971.094 60.2931 968.115 64.4132Z" fill="white"/>
</mask>
<g mask="url(#mask15_258_2020)">
<path d="M978.453 40.6082L955.769 57.4619L977.563 74.9893L1000.25 58.1356L978.453 40.6082Z" fill="url(#paint12_linear_258_2020)"/>
</g>
</g>
<defs>
<linearGradient id="paint0_linear_258_2020" x1="307.229" y1="269.972" x2="307.238" y2="269.767" gradientUnits="userSpaceOnUse">
<stop stop-color="#FF5600"/>
<stop offset="0.178" stop-color="#FF6000"/>
<stop offset="0.482" stop-color="#FF7B00"/>
<stop offset="0.876" stop-color="#FFA800"/>
<stop offset="1" stop-color="#FFB800"/>
</linearGradient>
<linearGradient id="paint1_linear_258_2020" x1="14.7748" y1="308.773" x2="15.0386" y2="308.773" gradientUnits="userSpaceOnUse">
<stop stop-color="#E55724"/>
<stop offset="0.243" stop-color="#E8701C"/>
<stop offset="0.759" stop-color="#F2B009"/>
<stop offset="1" stop-color="#F7D100"/>
</linearGradient>
<linearGradient id="paint2_linear_258_2020" x1="99.2993" y1="326.318" x2="99.6292" y2="326.203" gradientUnits="userSpaceOnUse">
<stop stop-color="#7E4FFF"/>
<stop offset="1" stop-color="#F211B4"/>
</linearGradient>
<linearGradient id="paint3_linear_258_2020" x1="1179.56" y1="319.305" x2="1179.7" y2="319.137" gradientUnits="userSpaceOnUse">
<stop stop-color="#7E4FFF"/>
<stop offset="1" stop-color="#F211B4"/>
</linearGradient>
<linearGradient id="paint4_linear_258_2020" x1="1000.94" y1="335.595" x2="1001.21" y2="335.533" gradientUnits="userSpaceOnUse">
<stop stop-color="#0092DC"/>
<stop offset="0.218" stop-color="#009BD4"/>
<stop offset="0.588" stop-color="#00B6C0"/>
<stop offset="1" stop-color="#00DCA5"/>
</linearGradient>
<linearGradient id="paint5_linear_258_2020" x1="1234.38" y1="246.894" x2="1234.52" y2="246.7" gradientUnits="userSpaceOnUse">
<stop stop-color="#FF5F7F"/>
<stop offset="0.535" stop-color="#FF859E"/>
<stop offset="1" stop-color="#FF5F7F"/>
</linearGradient>
<linearGradient id="paint6_linear_258_2020" x1="1352.88" y1="117.553" x2="1352.91" y2="117.346" gradientUnits="userSpaceOnUse">
<stop stop-color="#C7122D"/>
<stop offset="0.503" stop-color="#FF6685"/>
<stop offset="1" stop-color="#D43845"/>
</linearGradient>
<linearGradient id="paint7_linear_258_2020" x1="1209.75" y1="256.415" x2="1209.9" y2="256.233" gradientUnits="userSpaceOnUse">
<stop stop-color="#FF5F7F"/>
<stop offset="0.535" stop-color="#FF859E"/>
<stop offset="1" stop-color="#FF5F7F"/>
</linearGradient>
<linearGradient id="paint8_linear_258_2020" x1="1320.82" y1="117.221" x2="1320.85" y2="117.005" gradientUnits="userSpaceOnUse">
<stop stop-color="#FF5F7F"/>
<stop offset="0.535" stop-color="#FF859E"/>
<stop offset="1" stop-color="#FF5F7F"/>
</linearGradient>
<linearGradient id="paint9_linear_258_2020" x1="1264.29" y1="127.762" x2="1264.32" y2="127.555" gradientUnits="userSpaceOnUse">
<stop stop-color="#FF5F7F"/>
<stop offset="0.535" stop-color="#FF859E"/>
<stop offset="1" stop-color="#FF5F7F"/>
</linearGradient>
<linearGradient id="paint10_linear_258_2020" x1="1339.31" y1="129.102" x2="1339.34" y2="128.894" gradientUnits="userSpaceOnUse">
<stop stop-color="#C7122D"/>
<stop offset="0.503" stop-color="#FF6685"/>
<stop offset="1" stop-color="#D43845"/>
</linearGradient>
<linearGradient id="paint11_linear_258_2020" x1="1342.67" y1="91.4487" x2="1342.69" y2="91.2415" gradientUnits="userSpaceOnUse">
<stop stop-color="#C7122D"/>
<stop offset="0.503" stop-color="#FF6685"/>
<stop offset="1" stop-color="#D43845"/>
</linearGradient>
<linearGradient id="paint12_linear_258_2020" x1="1183.39" y1="252.349" x2="1183.55" y2="252.158" gradientUnits="userSpaceOnUse">
<stop stop-color="#C7122D"/>
<stop offset="0.503" stop-color="#FF6685"/>
<stop offset="1" stop-color="#D43845"/>
</linearGradient>
</defs>
</svg>
